<?xml version="1.0" encoding="UTF-8"?>
<svg xmlns="http://www.w3.org/2000/svg" viewBox="0 0 865.1 191.2" width="674" height="148">
 <path d="m244.4 130.5v-68.86h18.22v25.64h20.55v-25.64h18.22v68.86h-18.22v-27.33h-20.55v27.33zm86.82 1.271c-5.791 0-9.993-1.942-12.61-5.826-2.613-3.955-3.919-9.216-3.919-15.78v-32.63h18.22v30.3c0 3.39 0.424 5.649 1.271 6.779 0.918 1.13 2.26 1.695 4.026 1.695 1.694 0 3.107-0.353 4.237-1.059s2.26-1.907 3.39-3.602v-34.11h18.22v52.96h-14.83l-1.271-6.991h-0.424c-2.118 2.542-4.484 4.555-7.097 6.038-2.542 1.483-5.614 2.224-9.216 2.224zm64.42 20.55c-4.025 0-7.733-0.459-11.12-1.377-3.389-0.848-6.108-2.225-8.156-4.132-1.978-1.906-2.966-4.449-2.966-7.627 0-4.166 2.471-7.556 7.415-10.17v-0.424c-1.354-1.001-2.535-2.218-3.496-3.601-0.918-1.483-1.377-3.32-1.377-5.509 0-1.836 0.53-3.637 1.589-5.402 1.13-1.766 2.578-3.284 4.343-4.555v-0.424c-1.907-1.271-3.601-3.072-5.084-5.403-1.413-2.401-2.119-5.12-2.119-8.156 0-4.379 1.059-7.98 3.178-10.8 2.189-2.896 5.014-5.014 8.474-6.356 3.461-1.412 7.133-2.119 11.02-2.119 3.107 0 5.932 0.424 8.474 1.272h19.7v13.14h-7.627c0.211 0.636 0.388 1.448 0.529 2.436 0.212 0.989 0.318 2.013 0.318 3.072 0 4.167-0.953 7.557-2.86 10.17-1.907 2.542-4.484 4.414-7.733 5.614-3.249 1.201-6.85 1.801-10.8 1.801-1.765 0-3.743-0.247-5.932-0.742-0.848 0.777-1.271 1.801-1.271 3.072 0 1.13 0.565 1.942 1.695 2.437 1.2 0.494 3.107 0.741 5.72 0.741h7.945c6.638 0 11.76 1.095 15.36 3.284 3.672 2.119 5.508 5.614 5.508 10.49 0 3.814-1.271 7.168-3.813 10.06-2.472 2.895-6.003 5.155-10.59 6.779-4.59 1.625-10.03 2.437-16.31 2.437zm1.695-49.36c1.695 0 3.072-0.6 4.131-1.801 1.06-1.2 1.589-3.072 1.589-5.614 0-2.472-0.529-4.273-1.589-5.403-1.059-1.2-2.436-1.8-4.131-1.8s-3.072 0.6-4.131 1.8c-1.06 1.13-1.589 2.931-1.589 5.403 0 2.542 0.529 4.414 1.589 5.614 1.059 1.201 2.436 1.801 4.131 1.801zm1.271 38.14c2.966 0 5.438-0.459 7.415-1.377 1.978-0.848 2.966-2.013 2.966-3.496 0-1.412-0.635-2.295-1.906-2.648-1.201-0.353-2.931-0.53-5.191-0.53h-4.131c-2.119 0-3.743-0.07-4.873-0.212-1.059-0.07-1.977-0.211-2.754-0.423-1.271 1.271-1.907 2.542-1.907 3.813 0 1.695 0.953 2.931 2.86 3.708 1.978 0.777 4.485 1.165 7.521 1.165zm54.86 11.23c-4.026 0-7.733-0.459-11.12-1.377-3.39-0.848-6.109-2.225-8.157-4.132-1.977-1.906-2.966-4.449-2.966-7.627 0-4.166 2.472-7.556 7.415-10.17v-0.424c-1.354-1.001-2.535-2.218-3.495-3.601-0.919-1.483-1.378-3.32-1.378-5.509 0-1.836 0.53-3.637 1.589-5.402 1.13-1.766 2.578-3.284 4.344-4.555v-0.424c-1.907-1.271-3.602-3.072-5.085-5.403-1.413-2.401-2.119-5.12-2.119-8.156 0-4.379 1.06-7.98 3.178-10.8 2.189-2.896 5.014-5.014 8.475-6.356 3.46-1.412 7.132-2.119 11.02-2.119 3.108 0 5.933 0.424 8.475 1.272h19.7v13.14h-7.627c0.212 0.636 0.388 1.448 0.53 2.436 0.211 0.989 0.317 2.013 0.317 3.072 0 4.167-0.953 7.557-2.86 10.17-1.906 2.542-4.484 4.414-7.733 5.614-3.248 1.201-6.85 1.801-10.8 1.801-1.765 0-3.742-0.247-5.932-0.742-0.847 0.777-1.271 1.801-1.271 3.072 0 1.13 0.565 1.942 1.695 2.437 1.201 0.494 3.107 0.741 5.72 0.741h7.945c6.638 0 11.76 1.095 15.36 3.284 3.672 2.119 5.508 5.614 5.508 10.49 0 3.814-1.271 7.168-3.813 10.06-2.472 2.895-6.003 5.155-10.59 6.779-4.59 1.625-10.03 2.437-16.31 2.437zm1.694-49.36c1.695 0 3.072-0.6 4.132-1.801 1.059-1.2 1.589-3.072 1.589-5.614 0-2.472-0.53-4.273-1.589-5.403-1.06-1.2-2.437-1.8-4.132-1.8-1.694 0-3.072 0.6-4.131 1.8-1.059 1.13-1.589 2.931-1.589 5.403 0 2.542 0.53 4.414 1.589 5.614 1.059 1.201 2.437 1.801 4.131 1.801zm1.272 38.14c2.966 0 5.437-0.459 7.415-1.377 1.977-0.848 2.966-2.013 2.966-3.496 0-1.412-0.636-2.295-1.907-2.648-1.2-0.353-2.931-0.53-5.191-0.53h-4.131c-2.118 0-3.743-0.07-4.873-0.212-1.059-0.07-1.977-0.211-2.754-0.423-1.271 1.271-1.907 2.542-1.907 3.813 0 1.695 0.954 2.931 2.861 3.708 1.977 0.777 4.484 1.165 7.521 1.165zm35.58-10.59v-52.96h18.22v52.96zm9.11-59.53c-2.966 0-5.368-0.812-7.204-2.436-1.836-1.695-2.754-3.92-2.754-6.674s0.918-4.944 2.754-6.568c1.836-1.695 4.238-2.542 7.204-2.542s5.367 0.847 7.203 2.542c1.836 1.624 2.754 3.814 2.754 6.568s-0.918 4.979-2.754 6.674c-1.836 1.624-4.237 2.436-7.203 2.436zm21.41 59.53v-52.96h14.83l1.271 6.355h0.424c2.118-2.048 4.52-3.813 7.203-5.296 2.754-1.554 5.932-2.331 9.534-2.331 5.861 0 10.06 1.978 12.61 5.933 2.613 3.884 3.919 9.11 3.919 15.68v32.63h-18.22v-30.3c0-3.39-0.424-5.65-1.271-6.78-0.848-1.13-2.189-1.695-4.026-1.695-1.694 0-3.107 0.353-4.237 1.06-1.13 0.706-2.401 1.695-3.813 2.966v34.74zm80.93 21.82c-4.025 0-7.733-0.459-11.12-1.377-3.389-0.848-6.108-2.225-8.156-4.132-1.978-1.906-2.966-4.449-2.966-7.627 0-4.166 2.471-7.556 7.415-10.17v-0.424c-1.354-1.001-2.535-2.218-3.496-3.601-0.918-1.483-1.377-3.32-1.377-5.509 0-1.836 0.53-3.637 1.589-5.402 1.13-1.766 2.578-3.284 4.343-4.555v-0.424c-1.907-1.271-3.602-3.072-5.085-5.403-1.412-2.401-2.118-5.12-2.118-8.156 0-4.379 1.059-7.98 3.178-10.8 2.189-2.896 5.014-5.014 8.474-6.356 3.461-1.412 7.133-2.119 11.02-2.119 3.107 0 5.932 0.424 8.474 1.272h19.7v13.14h-7.627c0.212 0.636 0.389 1.448 0.53 2.436 0.212 0.989 0.318 2.013 0.318 3.072 0 4.167-0.953 7.557-2.86 10.17-1.907 2.542-4.485 4.414-7.733 5.614-3.249 1.201-6.85 1.801-10.8 1.801-1.766 0-3.743-0.247-5.932-0.742-0.848 0.777-1.271 1.801-1.271 3.072 0 1.13 0.565 1.942 1.695 2.437 1.2 0.494 3.107 0.741 5.72 0.741h7.945c6.638 0 11.76 1.095 15.36 3.284 3.672 2.119 5.508 5.614 5.508 10.49 0 3.814-1.271 7.168-3.814 10.06-2.471 2.895-6.002 5.155-10.59 6.779-4.59 1.625-10.03 2.437-16.31 2.437zm1.695-49.36c1.695 0 3.072-0.6 4.131-1.801 1.06-1.2 1.589-3.072 1.589-5.614 0-2.472-0.529-4.273-1.589-5.403-1.059-1.2-2.436-1.8-4.131-1.8s-3.072 0.6-4.131 1.8c-1.06 1.13-1.589 2.931-1.589 5.403 0 2.542 0.529 4.414 1.589 5.614 1.059 1.201 2.436 1.801 4.131 1.801zm1.271 38.14c2.966 0 5.438-0.459 7.415-1.377 1.978-0.848 2.966-2.013 2.966-3.496 0-1.412-0.635-2.295-1.906-2.648-1.201-0.353-2.931-0.53-5.191-0.53h-4.131c-2.119 0-3.743-0.07-4.873-0.212-1.059-0.07-1.978-0.211-2.754-0.423-1.272 1.271-1.907 2.542-1.907 3.813 0 1.695 0.953 2.931 2.86 3.708 1.977 0.777 4.484 1.165 7.521 1.165zm58.27-10.59v-68.86h44.91v15.25h-26.69v13.14h22.88v15.25h-22.88v25.21zm64.84 1.271c-3.319 0-6.179-0.741-8.58-2.224-2.292-1.512-4.154-3.592-5.402-6.038-1.272-2.472-1.907-5.156-1.907-8.051 0-5.509 2.26-9.816 6.779-12.92 4.52-3.178 11.86-5.296 22.03-6.356-0.424-3.672-2.896-5.508-7.415-5.508-1.907 0-3.92 0.388-6.038 1.165-2.119 0.706-4.555 1.801-7.31 3.284l-6.355-11.86c3.743-2.26 7.521-3.99 11.33-5.191 3.877-1.199 7.912-1.806 11.97-1.801 6.921 0 12.32 1.978 16.21 5.933 3.884 3.884 5.826 10.17 5.826 18.86v29.45h-14.83l-1.271-5.085h-0.424c-2.119 1.907-4.379 3.461-6.78 4.661-2.33 1.13-4.943 1.695-7.839 1.695zm6.356-13.98c1.483 0 2.719-0.318 3.708-0.953 0.988-0.706 1.942-1.589 2.86-2.648v-7.204c-4.308 0.636-7.309 1.589-9.004 2.86-1.624 1.272-2.437 2.649-2.437 4.132 0 2.542 1.625 3.813 4.873 3.813zm60.61 13.98c-5.014 0-9.534-1.095-13.56-3.284-4.026-2.189-7.239-5.332-9.64-9.428-2.331-4.166-3.496-9.18-3.496-15.04 0-5.861 1.307-10.84 3.92-14.94 2.683-4.167 6.179-7.344 10.49-9.534 4.307-2.189 8.968-3.284 13.98-3.284 3.178 0 6.039 0.495 8.581 1.483 2.613 0.989 4.908 2.331 6.885 4.026l-8.474 11.65c-1.13-0.988-2.154-1.659-3.072-2.012-0.912-0.353-1.882-0.532-2.86-0.53-3.39 0-6.038 1.2-7.945 3.602-1.907 2.33-2.86 5.508-2.86 9.533 0 4.026 0.989 7.239 2.966 9.64 1.977 2.33 4.378 3.496 7.203 3.496 1.483 0 2.931-0.318 4.343-0.954 1.448-0.685 2.831-1.501 4.132-2.436l6.991 11.86c-2.613 2.331-5.508 3.955-8.686 4.873-3.178 0.847-6.144 1.271-8.898 1.271zm47.39 0c-5.156 0-9.817-1.095-13.98-3.284-4.096-2.189-7.345-5.332-9.746-9.428-2.401-4.166-3.601-9.18-3.601-15.04 0-5.72 1.2-10.63 3.601-14.72 2.472-4.167 5.65-7.38 9.534-9.64s7.98-3.39 12.29-3.39c5.226 0 9.534 1.166 12.92 3.496 3.461 2.26 6.003 5.332 7.627 9.216 1.695 3.884 2.543 8.192 2.543 12.92 0 1.553-0.106 3.072-0.318 4.555-0.141 1.412-0.283 2.436-0.424 3.072h-30.19c0.847 3.178 2.366 5.402 4.555 6.673 2.189 1.201 4.767 1.801 7.733 1.801 3.39 0 6.991-1.059 10.8-3.178l5.932 10.8c-2.825 1.977-6.003 3.496-9.534 4.555s-6.779 1.589-9.745 1.589zm-9.958-34.11h15.68c0-2.048-0.53-3.813-1.589-5.296-0.989-1.554-2.86-2.331-5.614-2.331-1.978 0-3.743 0.601-5.297 1.801-1.554 1.201-2.613 3.143-3.178 5.826z" fill="#000b1b"/>
 <path d="m205.3 140.6c-0.537-2.027-1.407-3.95-2.574-5.692 0.25-0.918 0.44-1.85 0.568-2.791 0.828-5.976-1.243-11.45-5.148-15.68-2.115-2.312-4.382-3.838-6.783-4.775 1.576-6.743 2.374-13.64 2.378-20.57 0-3.162-0.179-6.26-0.479-9.312-0.157-1.524-0.346-3.045-0.567-4.561-0.688-4.473-1.708-8.889-3.052-13.21-0.881-2.839-1.9-5.634-3.053-8.374-1.729-4.058-3.748-7.986-6.041-11.75-1.505-2.506-3.143-4.93-4.908-7.261-0.865-1.177-1.766-2.326-2.704-3.446-2.778-3.377-5.796-6.547-9.033-9.487-1.074-0.9882-2.179-1.942-3.314-2.861-1.117-0.9318-2.259-1.834-3.424-2.705-2.345-1.745-4.769-3.383-7.263-4.907-13.78-8.37-29.94-13.17-47.22-13.17-50.29 0-91.05 40.76-91.05 91.05-0.0013 7.012 0.8111 14 2.421 20.82-2.16 0.938-4.231 2.399-6.15 4.514-3.904 4.231-5.976 9.683-5.147 15.66 0.125 0.95 0.315 1.89 0.567 2.814-1.166 1.743-2.036 3.667-2.574 5.694-1.2 4.561-0.805 8.674 0.72 12.28-1.657 4.711-1.243 9.727 0.916 14.09 1.57 3.185 3.817 5.648 6.586 7.851 3.293 2.617 7.415 4.842 12.39 6.975 5.932 2.53 13.17 4.907 16.46 5.779 8.506 2.203 16.66 3.599 24.93 3.666 11.78 0.11 21.92-2.66 29.18-9.747 3.567 0.437 7.157 0.656 10.75 0.655 3.797-8e-3 7.59-0.248 11.36-0.716 7.244 7.132 17.42 9.927 29.24 9.814 8.265-0.065 16.42-1.461 24.9-3.667 3.315-0.872 10.55-3.249 16.49-5.778 4.973-2.138 9.094-4.362 12.41-6.976 2.748-2.202 4.993-4.666 6.564-7.851 2.181-4.361 2.574-9.377 0.938-14.09 1.511-3.603 1.903-7.725 0.704-12.28zm-8.439 11.97c1.671 3.171 1.778 6.754 0.303 10.09-2.236 5.058-7.79 9.041-18.58 13.32-6.707 2.661-12.85 4.361-12.9 4.377-8.872 2.301-16.9 3.469-23.84 3.469-11.5 0-20.06-3.173-25.49-9.441-9.179 1.563-18.55 1.616-27.75 0.157-5.434 6.164-13.94 9.284-25.35 9.284-6.947 0-14.97-1.168-23.84-3.469-0.055-0.016-6.194-1.716-12.9-4.377-10.79-4.277-16.34-8.258-18.58-13.32-1.475-3.337-1.368-6.92 0.303-10.09 0.155-0.294 0.32-0.582 0.497-0.859-1.002-1.504-1.673-3.204-1.971-4.986-0.2978-1.782-0.2149-3.608 0.2432-5.356 0.664-2.522 2.036-4.62 3.898-6.127-0.8966-1.474-1.485-3.114-1.73-4.822-0.536-3.714 0.696-7.423 3.47-10.45 2.159-2.353 5.212-3.648 8.593-3.648h0.09c-2.549-8.169-3.841-16.68-3.833-25.24 0-46.67 37.84-84.51 84.51-84.51 46.68 0 84.51 37.84 84.51 84.51 6e-3 8.58-1.295 17.11-3.859 25.3 0.408-0.04 0.808-0.061 1.2-0.061 3.38 0 6.434 1.294 8.593 3.647 2.772 3.021 4.007 6.733 3.47 10.45-0.245 1.708-0.833 3.349-1.73 4.823 1.862 1.506 3.234 3.604 3.898 6.127 0.457 1.748 0.54 3.573 0.242 5.356-0.298 1.782-0.969 3.481-1.97 4.986 0.177 0.274 0.344 0.562 0.497 0.856z" fill="#fff"/>
 <path d="m196.3 151.7c1.001-1.505 1.672-3.204 1.97-4.986 0.298-1.783 0.215-3.608-0.242-5.356-0.664-2.522-2.036-4.62-3.898-6.127 0.896-1.474 1.485-3.114 1.73-4.822 0.536-3.714-0.696-7.423-3.47-10.45-2.159-2.353-5.213-3.648-8.593-3.648-0.393 0-0.792 0.02-1.2 0.061 2.561-8.188 3.86-16.72 3.852-25.3 0-46.67-37.84-84.51-84.51-84.51-46.67 0-84.51 37.83-84.51 84.51-0.0081 8.557 1.284 17.07 3.833 25.24h-0.09c-3.38 0-6.433 1.295-8.592 3.648-2.772 3.021-4.006 6.732-3.47 10.45 0.2447 1.708 0.8332 3.348 1.73 4.822-1.862 1.507-3.234 3.605-3.897 6.128-0.4578 1.748-0.5404 3.574-0.2422 5.357 0.2982 1.782 0.9703 3.482 1.972 4.986-0.179 0.277-0.343 0.565-0.497 0.859-1.67 3.171-1.778 6.754-0.303 10.09 2.235 5.057 7.79 9.042 18.58 13.32 6.707 2.661 12.85 4.361 12.9 4.377 8.872 2.301 16.9 3.47 23.84 3.47 11.41 0 19.92-3.12 25.35-9.285 9.196 1.459 18.57 1.406 27.75-0.157 5.427 6.268 13.99 9.442 25.49 9.442 6.946 0 14.97-1.169 23.84-3.47 0.054-0.016 6.194-1.716 12.9-4.377 10.79-4.276 16.34-8.261 18.58-13.32 1.475-3.337 1.368-6.92-0.303-10.09-0.153-0.297-0.321-0.584-0.498-0.859zm-111.6 13.18c-0.468 0.819-0.969 1.618-1.503 2.395-1.405 2.057-3.253 3.628-5.397 4.797-4.101 2.235-9.29 3.017-14.56 3.017-8.328 0-16.87-1.949-21.65-3.191-0.235-0.061-29.33-8.28-25.65-15.28 0.62-1.176 1.641-1.646 2.925-1.646 5.187 0 14.63 7.724 18.69 7.724 0.906 0 1.546-0.387 1.807-1.328 1.73-6.205-26.29-8.813-23.93-17.8 0.417-1.59 1.546-2.235 3.135-2.235 6.857-1e-3 22.25 12.06 25.47 12.06 0.247 0 0.424-0.072 0.52-0.224l0.042-0.069c1.51-2.495 0.644-4.309-9.708-10.65l-0.994-0.605c-11.39-6.895-19.39-11.04-14.84-15.99 0.523-0.572 1.264-0.825 2.165-0.825 1.069 0 2.362 0.358 3.786 0.957 6.016 2.537 14.35 9.456 17.84 12.47 1.027 0.894 1.632 1.44 1.632 1.44s4.41 4.586 7.077 4.586c0.614 0 1.134-0.241 1.487-0.84 1.892-3.188-17.56-17.93-18.66-24.01-0.743-4.122 0.522-6.209 2.863-6.209 1.112 0 2.47 0.473 3.969 1.424 4.65 2.952 13.63 18.38 16.92 24.38 1.102 2.012 2.983 2.862 4.678 2.862 3.363 0 5.992-3.343 0.308-7.591-8.543-6.393-5.545-16.84-1.468-17.48 0.174-0.027 0.35-0.041 0.525-0.042 3.708 0 5.344 6.39 5.344 6.39s4.793 12.04 13.03 20.27c7.473 7.469 8.516 13.6 4.163 21.24zm26.63 1.41-0.427 0.051-0.729 0.084c-0.383 0.039-0.766 0.077-1.151 0.113l-0.376 0.034-0.342 0.029-0.487 0.039c-0.179 0.013-0.358 0.027-0.537 0.038l-0.536 0.036-0.118 7e-3 -0.422 0.025-0.179 9e-3 -0.5 0.025-0.581 0.024-0.528 0.018-0.352 0.01h-0.178c-0.11 0-0.219 6e-3 -0.329 7e-3h-0.175c-0.11 0-0.219 0-0.329 6e-3l-0.447 5e-3h-0.626c-0.491 0-0.98-5e-3 -1.469-0.014l-0.396-9e-3c-0.112 0-0.225-6e-3 -0.337-9e-3l-0.419-0.013-0.522-0.02-0.469-0.02-0.122-5e-3 -0.447-0.024c-0.124-7e-3 -0.248-0.013-0.371-0.021l-0.289-0.017c-0.363-0.023-0.726-0.049-1.089-0.077l-0.38-0.03-0.48-0.041-0.561-0.052c-0.313-0.029-0.626-0.061-0.939-0.096h-0.015c4.57-10.2 2.259-19.72-6.976-28.94-6.056-6.048-10.09-14.98-10.92-16.94-1.692-5.805-6.171-12.26-13.61-12.26-0.629 1e-3 -1.256 0.051-1.877 0.149-3.259 0.512-6.107 2.388-8.139 5.21-2.195-2.731-4.33-4.902-6.26-6.129-2.91-1.844-5.813-2.78-8.643-2.78-3.53 0-6.687 1.45-8.887 4.08l-0.055 0.067-0.124-0.521-5e-3 -0.022c-0.4184-1.79-0.7699-3.596-1.054-5.412 0-0.013 0-0.025-6e-3 -0.037l-0.062-0.411c-0.0335-0.222-0.0662-0.445-0.098-0.667-0.026-0.185-0.052-0.37-0.076-0.554s-0.05-0.369-0.072-0.554c-0.024-0.186-0.046-0.371-0.068-0.556-0.0211-0.176-0.0414-0.352-0.061-0.528l-0.0059-0.045c-0.0902-0.812-0.1675-1.625-0.2321-2.439l-0.035-0.471c-0.01-0.129-0.019-0.259-0.027-0.39 0-0.03-4e-3 -0.061-6e-3 -0.089l-0.0329-0.522c-0.012-0.189-0.0211-0.378-0.0311-0.567-0.01-0.188-0.02-0.377-0.028-0.567l-0.02-0.495-6e-3 -0.15-0.015-0.458-0.0109-0.388c0-0.155-0.0071-0.311-0.0101-0.466l-8e-3 -0.489c-2e-3 -0.163 0-0.325-4e-3 -0.488-5e-3 -0.164 0-0.327 0-0.491 0-41.85 33.93-75.78 75.79-75.78 41.86 0 75.79 33.93 75.79 75.78v0.979c0 0.163-4e-3 0.327-8e-3 0.489 0 0.136-5e-3 0.269-9e-3 0.405 0 0.121-5e-3 0.241-0.01 0.358 0 0.153-9e-3 0.305-0.014 0.458v0.013c-0.013 0.332-0.027 0.664-0.041 0.996l-6e-3 0.11-0.026 0.496-0.024 0.393c-0.056 0.931-0.129 1.862-0.218 2.791v0.013c-0.016 0.174-0.034 0.349-0.053 0.523-0.044 0.405-0.089 0.81-0.134 1.215l-0.051 0.407-0.063 0.478c-0.022 0.175-0.046 0.349-0.071 0.523-0.027 0.195-0.056 0.389-0.084 0.583l-0.07 0.458-0.082 0.52c-0.028 0.173-0.056 0.345-0.089 0.518-0.034 0.172-0.06 0.344-0.09 0.517-0.06 0.344-0.122 0.687-0.189 1.03-0.133 0.683-0.272 1.364-0.419 2.044-0.037 0.169-0.075 0.339-0.114 0.508-2.133-2.073-4.957-3.202-8.073-3.202-2.827 0-5.733 0.935-8.642 2.78-1.931 1.226-4.064 3.398-6.261 6.129-2.035-2.823-4.883-4.698-8.138-5.211-0.621-0.097-1.249-0.147-1.878-0.148-7.439 0-11.92 6.453-13.61 12.26-0.839 1.961-4.869 10.89-10.93 16.95-9.228 9.198-11.56 18.68-7.058 28.83zm78.24-20.41-0.03 0.089c-0.021 0.057-0.042 0.114-0.065 0.17-0.036 0.085-0.074 0.168-0.114 0.251-0.097 0.198-0.207 0.39-0.328 0.574-0.167 0.249-0.35 0.487-0.549 0.711-0.046 0.052-0.09 0.103-0.142 0.154-0.07 0.077-0.145 0.152-0.219 0.227-1.347 1.335-3.399 2.504-5.719 3.578-0.263 0.119-0.529 0.238-0.799 0.357l-0.268 0.119c-0.179 0.079-0.357 0.158-0.545 0.235-0.183 0.078-0.367 0.155-0.551 0.231l-0.558 0.231c-1.305 0.537-2.642 1.048-3.947 1.554l-0.557 0.216-0.552 0.216c-0.366 0.143-0.728 0.286-1.085 0.429l-0.531 0.214-0.521 0.214-0.257 0.107c-0.17 0.072-0.338 0.142-0.504 0.214-3.838 1.646-6.598 3.321-6.018 5.4 0.016 0.059 0.034 0.115 0.054 0.169 0.052 0.154 0.123 0.3 0.211 0.436 0.052 0.082 0.112 0.159 0.179 0.229 0.682 0.708 1.923 0.596 3.488 0.034 0.127-0.046 0.257-0.095 0.388-0.147 0.09-0.034 0.179-0.07 0.269-0.106l0.135-0.057c0.358-0.152 0.737-0.321 1.125-0.506 0.097-0.045 0.195-0.089 0.293-0.141 1.913-0.935 4.082-2.196 6.234-3.343 0.33-0.179 0.661-0.35 0.99-0.52 0.538-0.279 1.081-0.548 1.629-0.805 2.038-0.958 3.953-1.638 5.494-1.638 0.722 0 1.361 0.148 1.892 0.488l0.089 0.059c0.269 0.19 0.503 0.423 0.694 0.691 0.044 0.063 0.09 0.128 0.129 0.195 0.042 0.069 0.082 0.14 0.12 0.212 0.761 1.444 0.124 2.941-1.366 4.408-1.431 1.408-3.657 2.789-6.188 4.068-0.187 0.095-0.376 0.19-0.566 0.282-7.531 3.698-17.39 6.483-17.53 6.518-2.628 0.681-6.386 1.576-10.62 2.245l-0.627 0.097-0.102 0.015c-0.96 0.144-1.923 0.271-2.888 0.381l-0.089 9e-3c-1.755 0.2-3.555 0.345-5.358 0.406h-0.027c-0.648 0.024-1.295 0.035-1.943 0.035h-0.746c-0.988-0.014-1.975-0.058-2.96-0.134-0.023 0-0.047 0-0.071-5e-3 -0.352-0.027-0.705-0.06-1.056-0.099-0.604-0.065-1.207-0.145-1.808-0.239-0.234-0.039-0.484-0.08-0.725-0.122-0.11-0.02-0.219-0.04-0.328-0.062l-0.026-5e-3c-0.347-0.066-0.692-0.139-1.036-0.218-0.199-0.045-0.399-0.09-0.596-0.143l-0.118-0.031c-0.098-0.024-0.194-0.05-0.29-0.076l-0.053-0.014-0.309-0.089c-0.112-0.032-0.223-0.065-0.335-0.098l-0.04-0.012-0.291-0.089c-0.11-0.034-0.219-0.07-0.328-0.105-0.09-0.03-0.179-0.061-0.269-0.09l-0.197-0.069c-0.19-0.066-0.378-0.136-0.566-0.208l-0.178-0.069-0.147-0.059c-0.283-0.114-0.565-0.233-0.844-0.358l-0.186-0.089-0.031-0.014c-0.066-0.031-0.131-0.062-0.197-0.09-0.129-0.062-0.257-0.126-0.384-0.191l-0.038-0.019-0.184-0.097c-0.327-0.17-0.648-0.352-0.962-0.546l-0.172-0.105c-0.089-0.054-0.17-0.109-0.255-0.164l-0.224-0.149c-0.081-0.054-0.162-0.109-0.241-0.166l-0.144-0.102c-0.152-0.109-0.301-0.22-0.448-0.335-0.078-0.06-0.155-0.122-0.232-0.179-0.171-0.137-0.338-0.278-0.503-0.423l-7e-3 -6e-3c-0.161-0.139-0.318-0.283-0.471-0.43l-8e-3 -0.01c-0.08-0.076-0.158-0.152-0.236-0.231-0.077-0.079-0.155-0.157-0.23-0.236-0.076-0.08-0.152-0.161-0.226-0.244-0.072-0.078-0.142-0.157-0.212-0.237l-0.024-0.027c-0.361-0.419-0.699-0.858-1.012-1.315l-0.124-0.183c-0.082-0.121-0.163-0.243-0.243-0.365l-0.236-0.363c-0.116-0.177-0.229-0.356-0.339-0.536-0.079-0.128-0.157-0.256-0.234-0.385-0.065-0.11-0.13-0.219-0.192-0.327-0.035-0.059-0.068-0.119-0.101-0.179-0.033-0.062-0.072-0.125-0.107-0.188l-0.056-0.099c-0.019-0.033-0.025-0.043-0.035-0.065-0.068-0.119-0.134-0.24-0.198-0.363-0.029-0.053-0.058-0.107-0.089-0.16l-0.09-0.172-0.089-0.171-0.172-0.347c-0.028-0.057-0.055-0.114-0.082-0.171-0.059-0.123-0.115-0.244-0.171-0.365-0.022-0.049-0.045-0.098-0.065-0.147-0.077-0.167-0.15-0.336-0.219-0.507-0.047-0.113-0.09-0.225-0.136-0.337-0.129-0.33-0.25-0.663-0.361-1-0.033-0.1-0.066-0.199-0.095-0.299-0.072-0.227-0.137-0.456-0.195-0.687-0.071-0.269-0.134-0.541-0.187-0.814-0.034-0.161-0.064-0.323-0.089-0.486-0.027-0.161-0.05-0.322-0.069-0.482-0.041-0.319-0.07-0.639-0.087-0.96 0-0.053-5e-3 -0.107-6e-3 -0.16-5e-3 -0.106-8e-3 -0.212-9e-3 -0.318-0.056-4.272 2.107-8.381 6.73-13 8.234-8.227 13.03-20.27 13.03-20.27s0.129-0.505 0.398-1.231c0.09-0.241 0.184-0.481 0.283-0.718 0.113-0.268 0.234-0.533 0.364-0.793l0.038-0.076c0.167-0.332 0.348-0.655 0.545-0.97 0.045-0.073 0.089-0.146 0.141-0.218 0.146-0.218 0.301-0.429 0.464-0.634 0.126-0.157 0.26-0.309 0.401-0.453 0.478-0.492 1.023-0.894 1.64-1.109l0.078-0.025c0.052-0.017 0.103-0.033 0.156-0.048 0.062-0.016 0.124-0.031 0.186-0.044l0.028-5e-3c0.131-0.026 0.262-0.044 0.395-0.053h0.012c0.069 0 0.138-7e-3 0.209-7e-3 0.177 1e-3 0.353 0.015 0.528 0.042 0.742 0.117 1.449 0.559 2.057 1.241l0.082 0.096c0.198 0.232 0.378 0.48 0.538 0.74 0.12 0.193 0.233 0.396 0.34 0.609 0.043 0.09 0.084 0.172 0.125 0.26 0.02 0.045 0.04 0.089 0.059 0.135 0.04 0.089 0.077 0.179 0.114 0.273 0.209 0.536 0.371 1.089 0.485 1.653 0.121 0.609 0.191 1.227 0.211 1.848 7e-3 0.273 7e-3 0.549 0 0.829-5e-3 0.106-0.01 0.213-0.018 0.32-0.082 1.189-0.341 2.359-0.769 3.472-0.043 0.11-0.09 0.222-0.134 0.334-0.215 0.514-0.465 1.012-0.747 1.492-0.161 0.274-0.335 0.546-0.521 0.816l-0.114 0.162c-0.441 0.616-0.933 1.194-1.471 1.728-0.53 0.531-1.098 1.022-1.699 1.471-0.603 0.445-1.168 0.939-1.69 1.476-1.503 1.578-1.853 2.969-1.515 4.024 0.04 0.119 0.087 0.236 0.141 0.349 0.125 0.245 0.287 0.47 0.481 0.666l0.053 0.053c0.055 0.053 0.113 0.104 0.172 0.153l0.06 0.049c0.146 0.112 0.3 0.212 0.461 0.299 0.046 0.025 0.089 0.05 0.142 0.074 0.221 0.11 0.452 0.198 0.69 0.265l0.066 0.017 0.089 0.024 0.078 0.019 0.083 0.018 0.083 0.017 0.079 0.013c0.059 0.011 0.119 0.02 0.178 0.028l0.058 8e-3 0.103 0.011 0.064 6e-3 0.106 8e-3h0.061l0.11 5e-3h0.347l0.099-5e-3 0.114-7e-3 0.139-0.013 0.13-0.016c0.029 0 0.059-8e-3 0.089-0.013 0.458-0.067 0.904-0.196 1.326-0.384 0.09-0.038 0.179-0.08 0.261-0.124 0.176-0.088 0.347-0.187 0.511-0.296 0.229-0.15 0.445-0.319 0.648-0.503l0.141-0.134c0.022-0.022 0.045-0.043 0.066-0.066 0.138-0.138 0.268-0.284 0.389-0.437 0.214-0.27 0.404-0.557 0.569-0.859 1.957-3.558 4.008-7.064 6.151-10.51l0.294-0.471 0.297-0.472c0.149-0.238 0.298-0.474 0.447-0.707l0.151-0.235 0.301-0.469c0.404-0.625 0.809-1.243 1.217-1.855l0.305-0.456c0.612-0.906 1.223-1.788 1.827-2.627l0.302-0.414c0.657-0.908 1.342-1.795 2.053-2.661l0.283-0.338c0.046-0.057 0.089-0.112 0.14-0.167l0.277-0.321c0.046-0.053 0.09-0.105 0.138-0.156l0.268-0.303 0.135-0.146c0.13-0.141 0.262-0.28 0.396-0.418 0.09-0.089 0.173-0.179 0.26-0.262 0.507-0.519 1.066-0.984 1.669-1.387l0.139-0.089 0.141-0.09c0.09-0.056 0.181-0.11 0.274-0.161 2.364-1.341 4.322-1.44 5.448-0.314 0.683 0.683 1.06 1.814 1.04 3.387 0 0.07 0 0.139-6e-3 0.211v0.078c0 0.071-6e-3 0.144-0.011 0.217 0 0.089-0.011 0.179-0.02 0.268-9e-3 0.09-0.013 0.158-0.022 0.237 0 0.023-5e-3 0.046-8e-3 0.069-7e-3 0.07-0.016 0.141-0.025 0.211 0 0.022 0 0.043-9e-3 0.065-0.01 0.095-0.024 0.19-0.041 0.284-0.011 0.087-0.025 0.174-0.042 0.261-7e-3 0.05-0.017 0.099-0.025 0.149-0.026 0.142-0.06 0.283-0.101 0.421-0.077 0.258-0.171 0.511-0.282 0.757-0.048 0.107-0.099 0.214-0.151 0.319-0.108 0.217-0.23 0.439-0.364 0.669-0.067 0.113-0.136 0.23-0.21 0.347l-0.112 0.178c-0.114 0.179-0.233 0.36-0.357 0.543s-0.257 0.37-0.4 0.559c-0.185 0.252-0.38 0.509-0.586 0.769l-0.156 0.197c-0.441 0.549-0.893 1.089-1.355 1.62l-0.367 0.415-0.187 0.21c-0.255 0.285-0.511 0.568-0.769 0.849l-0.198 0.214c-0.131 0.142-0.268 0.286-0.399 0.429-0.134 0.145-0.27 0.289-0.406 0.433l-0.412 0.434-0.417 0.435c-0.139 0.145-0.279 0.292-0.42 0.437l-0.849 0.875c-4.055 4.159-8.328 8.304-9.774 10.89-0.096 0.169-0.183 0.342-0.262 0.519-0.205 0.47-0.291 0.872-0.233 1.197 0.019 0.107 0.057 0.21 0.112 0.303 0.082 0.141 0.181 0.271 0.295 0.387 0.053 0.052 0.108 0.101 0.168 0.145 0.297 0.212 0.657 0.321 1.022 0.31h0.114l0.117-8e-3 0.118-0.014 0.097-0.014c0.013-1e-3 0.026-4e-3 0.039-7e-3l0.089-0.017 0.024-6e-3 0.098-0.021 0.14-0.036 0.125-0.037c0.082-0.025 0.164-0.053 0.248-0.084 0.181-0.064 0.358-0.138 0.531-0.221 0.044-0.021 0.089-0.041 0.132-0.064l0.133-0.066c0.174-0.088 0.347-0.183 0.521-0.286 0.139-0.082 0.277-0.166 0.415-0.255l0.134-0.089c0.044-0.028 0.089-0.057 0.133-0.09l0.133-0.089 0.07-0.049 0.192-0.134c0.179-0.124 0.346-0.251 0.516-0.38l0.015-0.011 0.268-0.208c0.367-0.29 0.716-0.582 1.031-0.857l0.21-0.185 0.02-0.018 0.109-0.097c0.258-0.231 0.488-0.447 0.68-0.626l0.078-0.076 0.189-0.179 0.113-0.11 0.039-0.04 0.011-0.011c0.096-0.096 0.096-0.096 0.192-0.193l8e-3 -8e-3 0.036-0.032c0.011-0.012 0.026-0.024 0.043-0.039l0.014-0.013 0.038-0.034 0.203-0.179 0.114-0.103c0.056-0.048 0.117-0.103 0.179-0.162l0.137-0.12c0.024-0.02 0.048-0.043 0.073-0.065l0.143-0.125 0.211-0.184 0.111-0.097c0.435-0.379 0.965-0.836 1.572-1.351l0.249-0.21 0.412-0.345 0.42-0.352c0.55-0.456 1.142-0.941 1.768-1.445l0.411-0.33c0.35-0.278 0.71-0.563 1.074-0.849 0.146-0.115 0.295-0.23 0.447-0.344 0.373-0.288 0.748-0.575 1.124-0.858 0.858-0.648 1.743-1.297 2.638-1.93l0.385-0.267c0.268-0.186 0.536-0.371 0.805-0.552l0.243-0.165c0.481-0.324 0.966-0.641 1.455-0.951l0.243-0.153 0.241-0.15c0.241-0.149 0.482-0.297 0.72-0.44l0.239-0.142 0.479-0.279c0.157-0.091 0.313-0.18 0.469-0.268l0.094-0.053 0.372-0.203c0.154-0.084 0.309-0.165 0.462-0.244l0.23-0.118 0.222-0.113c0.508-0.255 1.025-0.491 1.551-0.707 0.072-0.03 0.143-0.059 0.214-0.09 0.141-0.059 0.281-0.113 0.42-0.161 0.139-0.047 0.276-0.096 0.411-0.144 0.123-0.041 0.242-0.079 0.358-0.115l0.039-0.012c0.062-0.019 0.124-0.037 0.186-0.053l0.018-5e-3c0.126-0.036 0.252-0.069 0.379-0.099h0.01c0.187-0.045 0.369-0.083 0.547-0.113 0.061-0.01 0.121-0.02 0.179-0.028 0.173-0.026 0.347-0.044 0.521-0.056 0.11-8e-3 0.221-0.011 0.331-0.011h0.084c0.112 0 0.22 7e-3 0.327 0.018 0.049 0 0.098 9e-3 0.146 0.016h0.02c0.048 5e-3 0.097 0.013 0.144 0.023s0.095 0.017 0.141 0.028h0.016c0.046 0.01 0.089 0.023 0.137 0.036 0.382 0.103 0.733 0.297 1.024 0.565l0.026 0.026 0.051 0.05 0.05 0.053c0.401 0.422 0.733 0.905 0.983 1.431l0.039 0.089c0.085 0.2 0.152 0.407 0.199 0.619 0.13 0.591 0.095 1.207-0.102 1.779-0.085 0.249-0.189 0.491-0.312 0.723l-0.082 0.148c-0.312 0.523-0.68 1.01-1.099 1.452l-0.09 0.095c-0.197 0.209-0.402 0.412-0.613 0.607-0.067 0.063-0.136 0.126-0.206 0.189l-0.106 0.096c-0.22 0.195-0.445 0.385-0.673 0.571-0.04 0.032-0.081 0.064-0.12 0.098-0.159 0.128-0.323 0.258-0.493 0.388-0.586 0.448-1.183 0.88-1.791 1.297-0.358 0.245-0.728 0.492-1.11 0.743-0.712 0.467-1.429 0.924-2.153 1.372-0.209 0.129-0.419 0.26-0.633 0.39-1.967 1.21-4.148 2.504-6.474 3.911l-0.602 0.366c-0.659 0.402-1.281 0.786-1.866 1.151l-0.295 0.186-0.558 0.358c-0.221 0.14-0.436 0.278-0.645 0.414-0.158 0.101-0.312 0.201-0.463 0.3l-0.298 0.196c-0.145 0.095-0.289 0.19-0.433 0.287l-0.14 0.089c-0.148 0.099-0.292 0.196-0.432 0.292l-0.229 0.156-0.269 0.187-0.248 0.173c-0.392 0.275-0.779 0.556-1.163 0.842l-0.134 0.102c-0.151 0.114-0.297 0.228-0.438 0.339l-0.184 0.147c-0.31 0.249-0.591 0.488-0.845 0.716l-0.124 0.114c-0.071 0.065-0.141 0.13-0.207 0.194-0.047 0.044-0.09 0.089-0.137 0.133l-0.065 0.064c-0.143 0.143-0.282 0.29-0.417 0.441l-0.066 0.076c-0.147 0.17-0.275 0.333-0.388 0.492l-0.05 0.072c-0.13 0.19-0.245 0.391-0.343 0.6l-0.034 0.073-0.021 0.051-0.017 0.044-0.023 0.061c-7e-3 0.021-0.021 0.058-0.029 0.09-0.041 0.119-0.071 0.242-0.091 0.367l-0.01 0.067-8e-3 0.061-5e-3 0.059v0.314c0 0.026 0 0.053 6e-3 0.08 1e-3 0.016 3e-3 0.032 5e-3 0.048 0 0.026 7e-3 0.052 0.01 0.079l0.019 0.11v5e-3c7e-3 0.035 0.014 0.07 0.023 0.105s0.018 0.074 0.029 0.111c0.032 0.113 0.071 0.225 0.116 0.334 0 8e-3 7e-3 0.017 0.01 0.025 0.012 0.027 0.023 0.055 0.036 0.082 0.049 0.114 0.104 0.225 0.164 0.334l0.063 0.113 0.066 0.114 0.069 0.114c0.012 0.019 0.025 0.036 0.04 0.053l0.023 0.024 0.024 0.022 0.027 0.021c0.018 0.013 0.037 0.024 0.057 0.035 0.02 9e-3 0.042 0.019 0.064 0.027 0.024 8e-3 0.048 0.015 0.072 0.021 0.577 0.13 1.763-0.348 3.338-1.18l0.283-0.15 0.479-0.261 0.235-0.13c0.166-0.09 0.337-0.19 0.51-0.289l0.317-0.179c2.083-1.199 4.572-2.74 7.144-4.244 0.24-0.141 0.482-0.281 0.724-0.421l0.486-0.31c0.243-0.14 0.485-0.278 0.728-0.414 1.034-0.588 2.082-1.153 3.141-1.694l0.475-0.241c0.316-0.156 0.629-0.308 0.938-0.456 0.599-0.284 1.204-0.553 1.815-0.808l0.335-0.136 0.041-0.016c1.774-0.703 3.383-1.138 4.685-1.138 0.282-2e-3 0.563 0.021 0.841 0.069h8e-3c0.09 0.016 0.171 0.034 0.253 0.055h0.015c0.12 0.029 0.238 0.066 0.352 0.112 0.091 0.033 0.179 0.072 0.264 0.118 0.373 0.189 0.692 0.468 0.93 0.812 0.02 0.029 0.039 0.059 0.057 0.09 0.088 0.134 0.164 0.275 0.226 0.423 0.037 0.085 0.071 0.173 0.103 0.268 0.032 0.096 0.06 0.188 0.089 0.287 0.212 0.758 0.191 1.56-0.06 2.306z" fill="#ff9d00"/>
 <path d="m177.7 91.54v-0.49c0-41.85-33.92-75.78-75.78-75.78-41.85 0-75.79 33.93-75.79 75.78l-1e-3 0.164c-1e-3 0.109-2e-3 0.217 0 0.326 0.0048 0.163 0.0065 0.326 5e-3 0.489l6e-3 0.36 2e-3 0.13 5e-3 0.178c2e-3 0.096 5e-3 0.191 5e-3 0.287l0.01 0.389 0.016 0.457 5e-3 0.15 0.02 0.473v0.022l0.028 0.553v0.014c0.01 0.189 0.02 0.378 0.032 0.566 0.01 0.175 0.021 0.349 0.033 0.523l3e-3 0.031c0.0088 0.149 0.0188 0.299 0.03 0.448l3e-3 0.039c0.01 0.144 0.021 0.289 0.033 0.432l2e-3 0.028 0.02 0.25c0.0599 0.721 0.1299 1.442 0.21 2.161l5e-3 0.045 0.06 0.528 0.069 0.556c0.0463 0.37 0.0957 0.739 0.148 1.108 0.0312 0.223 0.0636 0.445 0.097 0.667l5e-3 0.027c0.0747 0.502 0.1553 1.004 0.242 1.504 0.2487 1.451 0.5408 2.895 0.876 4.329l5e-3 0.023 0.032 0.135c0.03 0.128 0.06 0.256 0.092 0.385l0.055-0.067c2.2-2.63 5.356-4.08 8.887-4.08 2.83 0 5.734 0.935 8.643 2.78 1.93 1.226 4.064 3.398 6.26 6.129 2.032-2.823 4.88-4.698 8.138-5.21 0.622-0.098 1.25-0.148 1.878-0.149 7.437 0 11.92 6.454 13.61 12.26 0.835 1.962 4.865 10.89 10.94 16.94 9.235 9.227 11.55 18.75 6.976 28.94h0.015c0.312 0.034 0.625 0.066 0.939 0.095 0.187 0.018 0.374 0.036 0.561 0.052l0.066 6e-3c0.137 0.013 0.275 0.025 0.413 0.035l0.38 0.031c0.362 0.028 0.725 0.053 1.09 0.077l0.288 0.017 0.229 0.013 0.143 8e-3 0.446 0.024 0.122 5e-3 0.47 0.02 0.521 0.02 0.42 0.012 0.07 3e-3c0.088 3e-3 0.178 7e-3 0.267 7e-3l0.095 2e-3c0.59 0.014 1.179 0.021 1.769 0.021h0.626l0.448-5e-3c0.11-6e-3 0.219-6e-3 0.329-6e-3h0.174l0.151-3e-3c0.059-2e-3 0.119-4e-3 0.178-4e-3h0.179l0.351-0.01 0.528-0.018 0.582-0.025c0.167-7e-3 0.333-0.015 0.5-0.024l0.179-0.01 0.265-0.015 0.157-9e-3 0.117-7e-3 0.537-0.036c0.179-0.011 0.358-0.025 0.537-0.039l0.486-0.038 0.343-0.029 0.375-0.034c0.385-0.036 0.769-0.074 1.151-0.114 0.244-0.027 0.486-0.054 0.729-0.083l0.427-0.051c-4.499-10.15-2.17-19.63 7.028-28.82 6.062-6.057 10.09-14.99 10.93-16.95 1.693-5.805 6.168-12.26 13.61-12.26 0.629 1e-3 1.257 0.05 1.878 0.149 3.255 0.512 6.104 2.388 8.139 5.21 2.197-2.731 4.33-4.903 6.26-6.129 2.909-1.845 5.815-2.78 8.642-2.78 3.116 0 5.941 1.13 8.074 3.202 0.117-0.522 0.23-1.044 0.338-1.568 0.066-0.327 0.131-0.655 0.195-0.984 0.078-0.404 0.152-0.81 0.22-1.216 0.018-0.11 0.037-0.22 0.058-0.331 0.033-0.173 0.062-0.344 0.089-0.518l0.011-0.066 0.071-0.453 0.07-0.459 1e-3 -5e-3c0.028-0.192 0.057-0.385 0.083-0.578 0.021-0.146 0.041-0.292 0.06-0.439l0.012-0.084 0.062-0.478 0.051-0.407c0.031-0.268 0.061-0.536 0.09-0.805 0.013-0.107 0.024-0.215 0.035-0.323l0.01-0.087c0.019-0.179 0.036-0.357 0.052-0.536l0.04-0.416c0.083-0.922 0.15-1.844 0.202-2.768v-6e-3l0.027-0.49 5e-3 -0.11 0.02-0.465c8e-3 -0.175 0.015-0.352 0.021-0.531v-0.013l5e-3 -0.129c5e-3 -0.11 9e-3 -0.22 9e-3 -0.329l2e-3 -0.045c4e-3 -0.102 8e-3 -0.208 8e-3 -0.313l3e-3 -0.09c3e-3 -0.105 6e-3 -0.209 6e-3 -0.314l2e-3 -0.089c3e-3 -0.134 6e-3 -0.267 6e-3 -0.401zm-94.57 75.71c6.001-8.802 5.576-15.41-2.659-23.64s-13.03-20.27-13.03-20.27-1.789-6.992-5.869-6.349c-4.08 0.642-7.073 11.09 1.469 17.48 8.542 6.395-1.699 10.73-4.987 4.73-3.289-6.002-12.26-21.43-16.92-24.38-4.654-2.951-7.927-1.297-6.83 4.785 0.545 3.019 5.613 8.171 10.35 12.98 4.804 4.885 9.265 9.42 8.312 11.02-1.893 3.188-8.56-3.745-8.56-3.745s-20.88-19-25.42-14.05c-4.189 4.563 2.271 8.442 12.23 14.42 0.847 0.509 1.719 1.033 2.612 1.573 11.39 6.896 12.28 8.715 10.66 11.32-0.597 0.964-4.41-1.325-9.1-4.141-7.995-4.8-18.54-11.13-20.03-5.464-1.289 4.903 6.467 7.907 13.5 10.63 5.86 2.27 11.22 4.346 10.43 7.164-0.817 2.921-5.246 0.485-10.09-2.179-5.435-2.991-11.39-6.268-13.34-2.57-3.684 6.99 25.41 15.22 25.65 15.28 9.4 2.438 33.27 7.604 41.62-4.623zm38.66 0c-6.002-8.802-5.576-15.41 2.659-23.64s13.03-20.27 13.03-20.27 1.788-6.992 5.868-6.349c4.08 0.642 7.074 11.09-1.469 17.48s1.699 10.73 4.988 4.73c3.288-6.002 12.26-21.43 16.91-24.38s7.928-1.297 6.831 4.785c-0.545 3.019-5.613 8.172-10.35 12.99-4.803 4.884-9.264 9.419-8.311 11.02 1.892 3.188 8.565-3.749 8.565-3.749s20.88-19 25.42-14.05c4.189 4.563-2.272 8.443-12.23 14.42-0.847 0.508-1.718 1.031-2.611 1.572-11.39 6.895-12.28 8.715-10.66 11.32 0.597 0.964 4.41-1.325 9.099-4.14 7.996-4.8 18.54-11.13 20.03-5.465 1.289 4.903-6.467 7.908-13.5 10.63-5.86 2.27-11.22 4.345-10.43 7.164 0.817 2.921 5.244 0.484 10.08-2.18 5.435-2.991 11.39-6.269 13.34-2.57 3.684 6.995-25.41 15.22-25.65 15.28-9.4 2.445-33.27 7.611-41.61-4.616z" clip-rule="evenodd" fill="#ffd21e" fill-rule="evenodd"/>
 <path d="m126.6 70.42c1.181 0.418 2.06 1.691 2.896 2.901 1.13 1.637 2.182 3.159 3.796 2.301 1.905-1.012 3.466-2.566 4.487-4.466 1.021-1.9 1.455-4.059 1.248-6.206-0.154-1.605-0.662-3.156-1.488-4.541-0.826-1.385-1.949-2.57-3.287-3.469-1.339-0.8988-2.861-1.489-4.455-1.729-1.595-0.2399-3.223-0.123-4.767 0.3421-2.065 0.6219-3.899 1.842-5.271 3.506-1.371 1.664-2.219 3.697-2.436 5.842-0.216 2.146 0.209 4.308 1.221 6.212 0.748 1.407 2.408 0.744 4.16 0.043 1.374-0.549 2.804-1.121 3.896-0.736zm-51.38 1e-3c-1.181 0.418-2.061 1.691-2.897 2.901-1.13 1.636-2.182 3.159-3.796 2.301-1.423-0.757-2.66-1.821-3.623-3.114s-1.627-2.783-1.945-4.364c-0.318-1.58-0.282-3.212 0.106-4.776 0.389-1.565 1.119-3.024 2.138-4.273 1.021-1.248 2.305-2.254 3.761-2.947s3.048-1.053 4.66-1.057c1.612-0.0035 3.205 0.3504 4.664 1.036 1.459 0.6859 2.748 1.687 3.774 2.93 1.372 1.664 2.22 3.697 2.437 5.843 0.216 2.146-0.209 4.308-1.222 6.212-0.75 1.407-2.41 0.743-4.162 0.042-1.373-0.549-2.803-1.121-3.895-0.735zm43.43 46.75c8.143-6.416 11.13-16.89 11.13-23.34 0-5.1-3.432-3.495-8.925-0.776l-0.309 0.154c-5.043 2.497-11.76 5.821-19.12 5.821-7.369 0-14.08-3.325-19.12-5.822-5.671-2.809-9.228-4.571-9.228 0.624 0 6.655 3.182 17.58 11.92 23.93 1.152-2.34 2.774-4.417 4.766-6.101 1.991-1.684 4.309-2.938 6.808-3.685 0.872-0.26 1.77 1.241 2.69 2.777 0.887 1.483 1.793 2.999 2.716 2.999 0.982 0 1.948-1.494 2.891-2.953 0.985-1.524 1.945-3.01 2.874-2.713 4.676 1.501 8.587 4.756 10.91 9.082z" clip-rule="evenodd" fill="#32343d" fill-rule="evenodd"/>
 <path d="m118.6 117.2c-4.241 3.342-9.878 5.583-17.22 5.583-6.897 0-12.29-1.978-16.43-4.989 1.153-2.339 2.776-4.416 4.767-6.099 1.991-1.684 4.309-2.939 6.807-3.687 1.713-0.511 3.527 5.776 5.405 5.776 2.011 0 3.948-6.247 5.766-5.666 4.674 1.502 8.584 4.757 10.91 9.082z" fill="#ff323d"/>
 <path d="m55.73 79.5c-0.7738 0.521-1.643 0.884-2.557 1.068-0.9144 0.184-1.856 0.186-2.771 6e-3 -0.9151-0.181-1.786-0.54-2.562-1.057-0.776-0.518-1.442-1.183-1.96-1.959-0.5183-0.775-0.8784-1.646-1.06-2.56-0.1813-0.915-0.1803-1.857 3e-3 -2.772 0.1833-0.914 0.5454-1.783 1.065-2.558 0.52-0.7742 1.188-1.438 1.965-1.954 1.563-1.037 3.474-1.413 5.313-1.044s3.458 1.452 4.5 3.011c1.042 1.56 1.424 3.469 1.061 5.309-0.363 1.841-1.441 3.463-2.997 4.51zm101.4 0c-0.774 0.521-1.643 0.884-2.557 1.068s-1.856 0.186-2.771 6e-3c-0.915-0.181-1.786-0.54-2.562-1.057-0.776-0.518-1.442-1.183-1.96-1.959-0.519-0.775-0.879-1.646-1.06-2.56-0.181-0.915-0.18-1.857 3e-3 -2.772 0.183-0.914 0.545-1.783 1.065-2.558 0.52-0.7742 1.188-1.438 1.965-1.954 1.563-1.037 3.474-1.413 5.313-1.044s3.457 1.452 4.5 3.011c1.042 1.56 1.424 3.469 1.061 5.309-0.363 1.841-1.441 3.463-2.997 4.51z" clip-rule="evenodd" fill="#ffad03" fill-rule="evenodd"/>
</svg>
